<svg width="236" height="28" viewBox="0 0 236 28" fill="none" xmlns="http://www.w3.org/2000/svg">
<path fill-rule="evenodd" clip-rule="evenodd" d="M75.7514 22.8595C75.7514 23.3664 75.4961 23.6198 74.9854 23.6198H65.9885C65.7712 23.6198 65.5946 23.5565 65.4588 23.4298C65.323 23.303 65.2551 23.124 65.2551 22.8926C65.2551 22.6942 65.3013 22.5344 65.3936 22.4132C65.486 22.292 65.6299 22.1928 65.8255 22.1157L66.5264 21.9008C66.7002 21.8457 66.836 21.741 66.9338 21.5868C67.0316 21.4325 67.0805 21.2121 67.0805 20.9256V11.3719C67.0805 11.2176 67.0425 11.0882 66.9664 10.9835C66.8904 10.8788 66.7491 10.7824 66.5427 10.6942L65.5974 10.3802C65.3474 10.259 65.1682 10.1295 65.0595 9.99174C64.9508 9.85399 64.8965 9.68595 64.8965 9.4876C64.8965 9.28926 64.9644 9.12672 65.1002 9L65.1536 8.95545C65.2837 8.85843 65.4534 8.80992 65.6625 8.80992H67.0928L67.0815 8.71333C67.051 8.52014 66.9746 8.33471 66.8523 8.15702C66.6894 7.92011 66.5046 7.65289 66.2982 7.35537C66.0917 7.05785 65.907 6.70248 65.744 6.28926C65.5811 5.87603 65.4996 5.36639 65.4996 4.76033C65.4996 3.3168 65.9885 2.16253 66.9664 1.29752C67.9444 0.432507 69.3352 0 71.1389 0C72.3015 0 73.2659 0.187328 74.0319 0.561983C74.798 0.936639 75.3711 1.43526 75.7514 2.05785C76.1317 2.68044 76.3219 3.36088 76.3219 4.09917C76.3219 4.9697 76.0964 5.62259 75.6455 6.05785C75.1946 6.49311 74.616 6.71074 73.9097 6.71074C73.1273 6.71074 72.4971 6.4573 72.019 5.95041C71.5409 5.44353 71.3019 4.77135 71.3019 3.93388V2.46281C71.3019 2.07713 71.2258 1.79339 71.0737 1.61157C70.9216 1.42975 70.688 1.33884 70.3729 1.33884C69.9708 1.33884 69.6666 1.47658 69.4601 1.75207C69.2537 2.02755 69.1505 2.42424 69.1505 2.94215C69.1505 3.47107 69.2727 3.96694 69.5172 4.42975C69.7617 4.89256 70.0632 5.32507 70.4218 5.72727C70.7803 6.12948 71.1389 6.51515 71.4975 6.8843C71.856 7.25344 72.1576 7.61708 72.402 7.97521L72.4717 8.08256C72.6037 8.29711 72.6918 8.51066 72.7358 8.72322L72.7507 8.80992H75.1647C75.4146 8.80992 75.6075 8.86226 75.7433 8.96694C75.8791 9.07162 75.947 9.23416 75.947 9.45455C75.947 9.78512 75.8058 10.0551 75.5232 10.2645C75.2407 10.4738 74.7952 10.5785 74.1868 10.5785H73.0295V20.876C73.0295 21.1846 73.0757 21.4215 73.1681 21.5868C73.2604 21.7521 73.4098 21.8512 73.6163 21.8843L75.018 22.0992C75.2679 22.1322 75.4526 22.2121 75.5721 22.3388C75.6917 22.4656 75.7514 22.6391 75.7514 22.8595ZM43.6593 23.2397C42.6814 23.7135 41.5405 23.9504 40.2366 23.9504C38.8567 23.9504 37.6207 23.6584 36.5287 23.0744C35.4367 22.4904 34.5755 21.6446 33.9453 20.5372C33.3151 19.4298 33 18.0826 33 16.4959C33 14.9642 33.3287 13.595 33.9861 12.3884C34.6434 11.1818 35.5589 10.2287 36.7324 9.52892C37.9059 8.8292 39.275 8.47934 40.8397 8.47934C42.1762 8.47934 43.3035 8.67769 44.2216 9.07438C45.1398 9.47107 45.8406 10.0083 46.3242 10.686C46.8077 11.3636 47.0495 12.1212 47.0495 12.9587C47.0495 13.8402 46.7968 14.5317 46.2916 15.0331C45.7863 15.5344 45.099 15.7851 44.2298 15.7851C43.3388 15.7851 42.6624 15.5289 42.2006 15.0165C41.7388 14.5041 41.5079 13.8017 41.5079 12.9091V11.8512C41.5079 11.3113 41.4101 10.9036 41.2145 10.6281C41.0189 10.3526 40.7419 10.2149 40.3833 10.2149C40.0247 10.2149 39.7015 10.3609 39.4135 10.6529C39.1256 10.9449 38.9028 11.3829 38.7453 11.9669C38.5877 12.551 38.509 13.2727 38.509 14.1322C38.509 15.3664 38.691 16.4022 39.055 17.2397C39.419 18.0771 39.9161 18.7052 40.5463 19.124C41.1765 19.5427 41.8936 19.7521 42.6977 19.7521C43.5018 19.7521 44.1755 19.6336 44.7187 19.3967C45.262 19.1598 45.6804 18.7603 45.9737 18.1983C46.1367 18.0441 46.2644 17.9449 46.3568 17.9008C46.4491 17.8567 46.5388 17.8347 46.6257 17.8347C46.7344 17.8457 46.824 17.8981 46.8946 17.9917C46.9652 18.0854 46.9951 18.2314 46.9843 18.4298C46.8973 19.5096 46.5659 20.4628 45.99 21.2893C45.4142 22.1157 44.6373 22.7658 43.6593 23.2397ZM60.2269 22.9091C59.0045 23.5813 57.5838 23.9174 55.9648 23.9174C54.3893 23.9174 53.0066 23.5895 51.8168 22.9339C50.627 22.2782 49.7007 21.3719 49.0379 20.2149C48.3751 19.0579 48.0437 17.719 48.0437 16.1983C48.0437 14.7438 48.3914 13.4353 49.0868 12.2727C49.7822 11.1102 50.7438 10.1873 51.9717 9.50413C53.1995 8.82094 54.612 8.47934 56.2093 8.47934C57.7957 8.47934 59.1811 8.80992 60.3655 9.47107C61.5498 10.1322 62.4734 11.0468 63.1362 12.2149C63.7991 13.3829 64.1305 14.7328 64.1305 16.2645C64.1305 17.719 63.7855 19.022 63.0955 20.1736C62.4055 21.3251 61.4493 22.2369 60.2269 22.9091ZM57.2035 22.1983C56.8667 22.2645 56.538 22.1157 56.2175 21.7521C55.8969 21.3884 55.5927 20.7769 55.3047 19.9174C55.0168 19.0579 54.7424 17.9284 54.4817 16.5289C54.2317 15.1295 54.0905 13.978 54.0579 13.0744C54.0253 12.1708 54.0905 11.4876 54.2535 11.0248C54.4165 10.562 54.6664 10.292 55.0032 10.2149C55.3401 10.1488 55.6687 10.2975 55.9893 10.6612C56.3098 11.0248 56.6168 11.6364 56.9102 12.4959C57.2035 13.3554 57.4806 14.4848 57.7414 15.8843C58.0022 17.2837 58.1461 18.438 58.1733 19.3471C58.2005 20.2562 58.1298 20.9421 57.9614 21.405C57.793 21.8678 57.5404 22.1322 57.2035 22.1983ZM86.3619 23.6198C86.8726 23.6198 87.1279 23.3664 87.1279 22.8595C87.1279 22.6391 87.0681 22.4656 86.9486 22.3388C86.8291 22.2121 86.6444 22.1322 86.3945 22.0992L84.9928 21.8843C84.7863 21.8512 84.6369 21.7521 84.5446 21.5868C84.4522 21.4215 84.406 21.1846 84.406 20.876V10.5785H85.5632C86.1717 10.5785 86.6172 10.4738 86.8997 10.2645C87.1822 10.0551 87.3235 9.78512 87.3235 9.45455C87.3235 9.23416 87.2556 9.07162 87.1198 8.96694C86.9839 8.86226 86.7911 8.80992 86.5411 8.80992H84.1271L84.1122 8.72322C84.0682 8.51066 83.9802 8.29711 83.8482 8.08256L83.7785 7.97521C83.534 7.61708 83.2325 7.25344 82.8739 6.8843C82.5154 6.51515 82.1568 6.12948 81.7982 5.72727C81.4397 5.32507 81.1381 4.89256 80.8937 4.42975C80.6492 3.96694 80.5269 3.47107 80.5269 2.94215C80.5269 2.42424 80.6302 2.02755 80.8366 1.75207C81.0431 1.47658 81.3473 1.33884 81.7493 1.33884C82.0644 1.33884 82.2981 1.42975 82.4502 1.61157C82.6023 1.79339 82.6784 2.07713 82.6784 2.46281V3.93388C82.6784 4.77135 82.9174 5.44353 83.3955 5.95041C83.8736 6.4573 84.5038 6.71074 85.2862 6.71074C85.9924 6.71074 86.571 6.49311 87.022 6.05785C87.4729 5.62259 87.6984 4.9697 87.6984 4.09917C87.6984 3.36088 87.5082 2.68044 87.1279 2.05785C86.7476 1.43526 86.1744 0.936639 85.4084 0.561983C84.6424 0.187328 83.678 0 82.5154 0C80.7117 0 79.3208 0.432507 78.3429 1.29752C77.365 2.16253 76.876 3.3168 76.876 4.76033C76.876 5.36639 76.9575 5.87603 77.1205 6.28926C77.2835 6.70248 77.4682 7.05785 77.6747 7.35537C77.8811 7.65289 78.0658 7.92011 78.2288 8.15702C78.3511 8.33471 78.4275 8.52014 78.458 8.71333L78.4692 8.80992H77.039C76.8299 8.80992 76.6602 8.85843 76.5301 8.95545L76.4767 9C76.3409 9.12672 76.273 9.28926 76.273 9.4876C76.273 9.68595 76.3273 9.85399 76.436 9.99174C76.5446 10.1295 76.7239 10.259 76.9738 10.3802L77.9192 10.6942C78.1256 10.7824 78.2669 10.8788 78.3429 10.9835C78.419 11.0882 78.457 11.2176 78.457 11.3719V20.9256C78.457 21.2121 78.4081 21.4325 78.3103 21.5868C78.2125 21.741 78.0767 21.8457 77.9029 21.9008L77.202 22.1157C77.0064 22.1928 76.8625 22.292 76.7701 22.4132C76.6777 22.5344 76.6316 22.6942 76.6316 22.8926C76.6316 23.124 76.6995 23.303 76.8353 23.4298C76.9711 23.5565 77.1477 23.6198 77.365 23.6198H86.3619ZM99.1237 23.1405C98.0697 23.6804 96.8528 23.9504 95.4728 23.9504C93.9516 23.9504 92.6151 23.6336 91.4633 23C90.3116 22.3664 89.4124 21.4793 88.7659 20.3388C88.1194 19.1983 87.7961 17.8788 87.7961 16.3802C87.7961 14.8044 88.1085 13.4242 88.7333 12.2397C89.3581 11.0551 90.2627 10.1322 91.447 9.47107C92.6314 8.80992 94.0548 8.47934 95.7173 8.47934C97.1299 8.47934 98.3468 8.75758 99.3682 9.31405C100.39 9.87052 101.175 10.6253 101.723 11.5785C102.272 12.5317 102.546 13.5923 102.546 14.7603C102.546 15.2672 102.411 15.6667 102.139 15.9587L102.074 16.0235C101.806 16.2723 101.437 16.3967 100.965 16.3967H93.5147L93.5307 16.4729C93.7284 17.3804 94.0661 18.1071 94.5438 18.6529C95.3587 19.584 96.4453 20.0496 97.8035 20.0496C98.6728 20.0496 99.4416 19.8512 100.11 19.4545C100.778 19.0578 101.226 18.5069 101.454 17.8017C101.585 17.6584 101.702 17.562 101.805 17.5124C101.908 17.4628 101.998 17.438 102.074 17.438C102.182 17.438 102.275 17.4821 102.351 17.5702C102.427 17.6584 102.465 17.8072 102.465 18.0165C102.465 19.0964 102.172 20.0854 101.585 20.9835C100.998 21.8815 100.178 22.6005 99.1237 23.1405ZM93.3447 15.0717C93.3291 14.8181 93.3214 14.5546 93.3214 14.281C93.3214 13.2452 93.3975 12.4298 93.5496 11.8347C93.7017 11.2397 93.8973 10.8182 94.1363 10.5702C94.3754 10.3223 94.6416 10.1983 94.935 10.1983C95.3153 10.1983 95.6711 10.5234 96.0025 11.1736C96.3339 11.8237 96.4996 12.9036 96.4996 14.4132C96.4996 14.876 96.2932 15.1074 95.8803 15.1074H93.3467L93.3447 15.0717ZM114.705 23.1405C113.651 23.6804 112.434 23.9504 111.054 23.9504C109.533 23.9504 108.197 23.6336 107.045 23C105.893 22.3664 104.994 21.4793 104.347 20.3388C103.701 19.1983 103.378 17.8788 103.378 16.3802C103.378 14.8044 103.69 13.4242 104.315 12.2397C104.94 11.0551 105.844 10.1322 107.029 9.47107C108.213 8.80992 109.636 8.47934 111.299 8.47934C112.711 8.47934 113.928 8.75758 114.95 9.31405C115.971 9.87052 116.756 10.6253 117.305 11.5785C117.854 12.5317 118.128 13.5923 118.128 14.7603C118.128 15.2672 117.992 15.6667 117.721 15.9587L117.656 16.0235C117.388 16.2723 117.018 16.3967 116.547 16.3967H109.096L109.112 16.4729C109.31 17.3804 109.648 18.1071 110.125 18.6529C110.94 19.584 112.027 20.0496 113.385 20.0496C114.254 20.0496 115.023 19.8512 115.691 19.4545C116.36 19.0578 116.808 18.5069 117.036 17.8017C117.166 17.6584 117.283 17.562 117.386 17.5124C117.49 17.4628 117.579 17.438 117.655 17.438C117.764 17.438 117.856 17.4821 117.932 17.5702C118.008 17.6584 118.046 17.8072 118.046 18.0165C118.046 19.0964 117.753 20.0854 117.166 20.9835C116.58 21.8815 115.759 22.6005 114.705 23.1405ZM108.926 15.0717C108.911 14.8181 108.903 14.5546 108.903 14.281C108.903 13.2452 108.979 12.4298 109.131 11.8347C109.283 11.2397 109.479 10.8182 109.718 10.5702C109.957 10.3223 110.223 10.1983 110.517 10.1983C110.897 10.1983 111.253 10.5234 111.584 11.1736C111.915 11.8237 112.081 12.9036 112.081 14.4132C112.081 14.876 111.875 15.1074 111.462 15.1074H108.928L108.926 15.0717ZM128.6 23.4132C128.464 23.551 128.266 23.6198 128.005 23.6198H119.856C119.617 23.6198 119.429 23.5537 119.293 23.4215C119.158 23.2893 119.09 23.1074 119.09 22.876C119.09 22.6997 119.13 22.5537 119.212 22.438C119.293 22.3223 119.405 22.2149 119.546 22.1157L119.921 21.9669C120.062 21.9008 120.16 21.7961 120.214 21.6529C120.269 21.5096 120.296 21.2727 120.296 20.9421V12.5455C120.296 12.281 120.266 12.0909 120.206 11.9752C120.146 11.8595 120.046 11.7686 119.905 11.7025L119.481 11.6529C119.329 11.5647 119.217 11.4711 119.147 11.3719C119.076 11.2727 119.041 11.146 119.041 10.9917C119.041 10.8154 119.095 10.6584 119.204 10.5207C119.312 10.3829 119.497 10.2645 119.758 10.1653L124.387 8.82645C124.658 8.71625 124.886 8.63912 125.071 8.59504C125.256 8.55096 125.413 8.52893 125.544 8.52893C125.729 8.52893 125.867 8.59504 125.959 8.72727L125.989 8.77523C126.065 8.91344 126.118 9.13437 126.147 9.43802L126.271 12.0064L126.299 11.9116C126.354 11.7327 126.415 11.5611 126.481 11.3967C126.878 10.4105 127.402 9.67769 128.054 9.19835C128.706 8.71901 129.418 8.47934 130.189 8.47934C131.123 8.47934 131.841 8.79339 132.34 9.42149C132.84 10.0496 133.09 11.0028 133.09 12.281C133.09 13.5482 132.829 14.4793 132.308 15.0744C131.786 15.6694 131.113 15.9669 130.287 15.9669C129.483 15.9669 128.888 15.7631 128.502 15.3554C128.116 14.9477 127.913 14.3691 127.891 13.6198L127.875 12.9587C127.864 12.7052 127.815 12.5069 127.728 12.3636C127.641 12.2204 127.5 12.1488 127.304 12.1488C127.109 12.1488 126.937 12.2507 126.791 12.4545C126.644 12.6584 126.533 12.9697 126.457 13.3884C126.381 13.8072 126.343 14.3416 126.343 14.9917V20.8099C126.343 21.1185 126.391 21.3636 126.489 21.5455C126.587 21.7273 126.739 21.8402 126.946 21.8843L128.168 22.1322C128.396 22.1653 128.559 22.2507 128.657 22.3884C128.755 22.5262 128.804 22.6887 128.804 22.876C128.804 23.0964 128.736 23.2755 128.6 23.4132ZM141.631 23.9174C143.25 23.9174 144.67 23.5813 145.893 22.9091C147.115 22.2369 148.071 21.3251 148.761 20.1736C149.451 19.022 149.796 17.719 149.796 16.2645C149.796 14.7328 149.465 13.3829 148.802 12.2149C148.139 11.0468 147.216 10.1322 146.031 9.47107C144.847 8.80992 143.462 8.47934 141.875 8.47934C140.278 8.47934 138.865 8.82094 137.637 9.50413C136.41 10.1873 135.448 11.1102 134.753 12.2727C134.057 13.4353 133.71 14.7438 133.71 16.1983C133.71 17.719 134.041 19.0579 134.704 20.2149C135.367 21.3719 136.293 22.2782 137.483 22.9339C138.672 23.5895 140.055 23.9174 141.631 23.9174ZM141.883 21.7521C142.204 22.1157 142.533 22.2645 142.869 22.1983C143.206 22.1322 143.459 21.8678 143.627 21.405C143.796 20.9421 143.866 20.2562 143.839 19.3471C143.812 18.438 143.668 17.2837 143.407 15.8843C143.146 14.4848 142.869 13.3554 142.576 12.4959C142.283 11.6364 141.976 11.0248 141.655 10.6612C141.335 10.2975 141.006 10.1488 140.669 10.2149C140.332 10.292 140.082 10.562 139.919 11.0248C139.756 11.4876 139.691 12.1708 139.724 13.0744C139.756 13.978 139.898 15.1295 140.147 16.5289C140.408 17.9284 140.683 19.0579 140.971 19.9174C141.259 20.7769 141.563 21.3884 141.883 21.7521ZM162.721 23.9504C163.634 23.9504 164.384 23.7824 164.97 23.4463C165.557 23.1102 165.994 22.7107 166.282 22.2479C166.57 21.7851 166.714 21.3609 166.714 20.9752C166.714 20.8099 166.679 20.6722 166.608 20.562C166.538 20.4518 166.443 20.3967 166.323 20.3967C166.269 20.3967 166.22 20.4077 166.176 20.4298C166.133 20.4518 166.095 20.4848 166.062 20.5289C166.008 20.7273 165.924 20.865 165.81 20.9421C165.696 21.0193 165.573 21.0578 165.443 21.0578C165.258 21.0578 165.12 20.9945 165.027 20.8678C164.935 20.741 164.889 20.573 164.889 20.3636V13.0579C164.889 11.6033 164.397 10.4766 163.414 9.67769C162.43 8.87879 160.89 8.47934 158.793 8.47934C157.163 8.47934 155.802 8.6832 154.71 9.09091C153.618 9.49862 152.798 10.0193 152.249 10.6529C151.701 11.2865 151.426 11.9339 151.426 12.595C151.426 13.3003 151.63 13.8375 152.037 14.2066C152.445 14.5758 153.034 14.7603 153.806 14.7603C154.751 14.7603 155.495 14.5041 156.039 13.9917C156.582 13.4793 156.854 12.8154 156.854 12V10.7438C156.854 10.4353 156.949 10.1956 157.139 10.0248C157.329 9.85399 157.565 9.76859 157.848 9.76859C158.152 9.76859 158.394 9.88154 158.573 10.1074C158.752 10.3333 158.842 10.6391 158.842 11.0248L158.842 15.843L158.755 15.8241C158.493 15.7735 158.189 15.7446 157.844 15.7373L157.669 15.7355C155.332 15.7355 153.591 16.1322 152.445 16.9256C151.299 17.719 150.725 18.8264 150.725 20.2479C150.725 21.3278 151.119 22.2149 151.907 22.9091C152.695 23.6033 153.741 23.9504 155.044 23.9504C156.022 23.9504 156.935 23.7493 157.783 23.3471C158.418 23.0455 158.935 22.6493 159.332 22.1586L159.355 22.1299L159.379 22.2039C159.504 22.5612 159.733 22.8813 160.067 23.1642L160.17 23.2479C160.773 23.7163 161.624 23.9504 162.721 23.9504ZM157.106 20.8347C157.372 21.1928 157.723 21.3719 158.158 21.3719L158.251 21.3687C158.436 21.3558 158.615 21.3041 158.789 21.2137L158.842 21.1837V16.9422L158.761 16.9174C158.576 16.8678 158.359 16.843 158.109 16.843C157.685 16.843 157.345 17.0413 157.09 17.438C156.835 17.8347 156.707 18.4187 156.707 19.1901C156.707 19.9284 156.84 20.4766 157.106 20.8347ZM174.212 24C176.146 24 177.629 23.5537 178.661 22.6612C179.694 21.7686 180.21 20.551 180.21 19.0083C180.21 18.0716 180.036 17.2507 179.688 16.5455C179.34 15.8402 178.732 15.2149 177.863 14.6694C176.993 14.124 175.771 13.6088 174.195 13.124C173.609 12.9366 173.155 12.7466 172.834 12.5537C172.514 12.3609 172.294 12.1543 172.174 11.9339C172.055 11.7135 171.995 11.4766 171.995 11.2231C171.995 10.8485 172.131 10.5455 172.403 10.314C172.674 10.0826 173.076 9.96694 173.609 9.96694C174.348 9.96694 175.046 10.2149 175.703 10.7107C176.36 11.2066 177.086 12.0551 177.879 13.2562C178.085 13.5096 178.292 13.6942 178.498 13.8099C178.705 13.9256 178.9 13.9614 179.085 13.9174C179.313 13.8512 179.454 13.6997 179.509 13.4628C179.563 13.2259 179.552 12.8871 179.476 12.4463L179.052 9.40496C179.009 9.0854 178.927 8.8595 178.808 8.72727C178.688 8.59504 178.531 8.52893 178.335 8.52893C178.161 8.52893 177.944 8.58953 177.683 8.71074C177.423 8.83196 177.164 8.95592 176.909 9.08264C176.654 9.20937 176.461 9.27273 176.331 9.27273C176.211 9.27273 176.034 9.20661 175.801 9.07438C175.567 8.94215 175.239 8.80992 174.815 8.67769C174.391 8.54545 173.842 8.47934 173.169 8.47934C172.049 8.47934 171.042 8.6832 170.145 9.09091C169.249 9.49862 168.542 10.0799 168.026 10.8347C167.51 11.5895 167.252 12.4904 167.252 13.5372C167.252 14.4628 167.445 15.2727 167.831 15.9669C168.217 16.6612 168.806 17.2562 169.599 17.7521C170.392 18.2479 171.392 18.6501 172.598 18.9587C173.38 19.168 173.981 19.3802 174.399 19.595C174.817 19.8099 175.105 20.0441 175.263 20.2975C175.421 20.551 175.499 20.832 175.499 21.1405C175.499 21.5482 175.363 21.8843 175.092 22.1488C174.82 22.4132 174.407 22.5455 173.853 22.5455C173.332 22.5455 172.834 22.4325 172.362 22.2066C171.889 21.9807 171.403 21.5923 170.903 21.0413C170.403 20.4904 169.844 19.7355 169.224 18.7769C169.04 18.5234 168.83 18.3471 168.597 18.2479C168.363 18.1488 168.127 18.1543 167.888 18.2645C167.66 18.3526 167.513 18.5399 167.448 18.8264C167.383 19.1129 167.399 19.4656 167.497 19.8843L168.002 23.1736C168.078 23.5041 168.187 23.7245 168.328 23.8347C168.469 23.9449 168.621 24 168.784 24C168.969 24 169.194 23.9394 169.461 23.8182L170.259 23.4545C170.525 23.3333 170.74 23.2727 170.903 23.2727C171.066 23.2727 171.281 23.3333 171.547 23.4545C171.813 23.5758 172.161 23.697 172.59 23.8182C173.019 23.9394 173.56 24 174.212 24ZM189.663 23.3802C188.946 23.7603 188.098 23.9504 187.12 23.9504C185.469 23.9504 184.227 23.5482 183.396 22.7438C182.565 21.9394 182.149 20.6722 182.149 18.9422V11.4711C182.149 11.2397 182.127 11.0634 182.084 10.9421C182.041 10.8209 181.932 10.7218 181.758 10.6446L180.992 10.3967C180.807 10.3085 180.688 10.2011 180.633 10.0744C180.579 9.94766 180.552 9.79063 180.552 9.60331C180.552 9.3719 180.633 9.18182 180.796 9.03306C180.959 8.8843 181.16 8.80992 181.399 8.80992H182.198C182.296 8.80992 182.399 8.77135 182.508 8.69421C182.616 8.61708 182.763 8.46281 182.948 8.23141L185.963 5.70248C186.18 5.43802 186.398 5.23691 186.615 5.09917C186.832 4.96143 187.05 4.89256 187.267 4.89256C187.517 4.89256 187.712 4.9697 187.854 5.12397L187.898 5.17866C188.01 5.3332 188.066 5.55739 188.066 5.85124L188.065 8.80992H191.472C191.711 8.80992 191.896 8.86226 192.026 8.96694C192.157 9.07163 192.222 9.23416 192.222 9.45455C192.222 9.76309 192.086 10.0275 191.814 10.2479L191.754 10.2935C191.48 10.4835 191.065 10.5785 190.51 10.5785H188.065L188.066 18.1157C188.066 18.9421 188.204 19.5537 188.481 19.9504C188.758 20.3471 189.163 20.5455 189.695 20.5455C189.924 20.5455 190.136 20.4959 190.331 20.3967C190.527 20.2975 190.703 20.168 190.861 20.0083C191.018 19.8485 191.168 19.6694 191.309 19.4711C191.45 19.2727 191.586 19.0744 191.717 18.876C191.825 18.832 191.92 18.8512 192.002 18.9339C192.083 19.0165 192.119 19.1846 192.108 19.438C192.032 20.3306 191.784 21.1157 191.366 21.7934C190.948 22.4711 190.38 23 189.663 23.3802ZM200.339 23.9504C201.718 23.9504 202.935 23.6804 203.989 23.1405C205.043 22.6005 205.864 21.8815 206.451 20.9835C207.037 20.0854 207.331 19.0964 207.331 18.0165C207.331 17.8072 207.293 17.6584 207.217 17.5702C207.14 17.4821 207.048 17.438 206.939 17.438C206.863 17.438 206.774 17.4628 206.671 17.5124C206.567 17.562 206.451 17.6584 206.32 17.8017C206.092 18.5069 205.644 19.0578 204.975 19.4545C204.307 19.8512 203.538 20.0496 202.669 20.0496C201.311 20.0496 200.224 19.584 199.409 18.6529C198.932 18.1071 198.594 17.3804 198.396 16.4729L198.38 16.3967H205.831C206.303 16.3967 206.672 16.2723 206.94 16.0235L207.005 15.9587C207.276 15.6667 207.412 15.2672 207.412 14.7603C207.412 13.5923 207.138 12.5317 206.589 11.5785C206.04 10.6253 205.255 9.87052 204.234 9.31405C203.212 8.75758 201.996 8.47934 200.583 8.47934C198.921 8.47934 197.497 8.80992 196.313 9.47107C195.128 10.1322 194.224 11.0551 193.599 12.2397C192.974 13.4242 192.662 14.8044 192.662 16.3802C192.662 17.8788 192.985 19.1983 193.632 20.3388C194.278 21.4793 195.177 22.3664 196.329 23C197.481 23.6336 198.817 23.9504 200.339 23.9504ZM198.187 14.281C198.187 14.5546 198.195 14.8181 198.21 15.0717L198.212 15.1074H200.746C201.159 15.1074 201.365 14.876 201.365 14.4132C201.365 12.9036 201.2 11.8237 200.868 11.1736C200.537 10.5234 200.181 10.1983 199.801 10.1983C199.507 10.1983 199.241 10.3223 199.002 10.5702C198.763 10.8182 198.567 11.2397 198.415 11.8347C198.263 12.4298 198.187 13.2452 198.187 14.281ZM217.289 23.6198C217.55 23.6198 217.748 23.551 217.884 23.4132C218.02 23.2755 218.088 23.0964 218.088 22.876C218.088 22.6887 218.039 22.5262 217.941 22.3884C217.843 22.2507 217.68 22.1653 217.452 22.1322L216.23 21.8843C216.023 21.8402 215.871 21.7273 215.773 21.5455C215.676 21.3636 215.627 21.1185 215.627 20.8099V14.9917C215.627 14.3416 215.665 13.8072 215.741 13.3884C215.817 12.9697 215.928 12.6584 216.075 12.4545C216.222 12.2507 216.393 12.1488 216.588 12.1488C216.784 12.1488 216.925 12.2204 217.012 12.3636C217.099 12.5069 217.148 12.7052 217.159 12.9587L217.175 13.6198C217.197 14.3691 217.4 14.9477 217.786 15.3554C218.172 15.7631 218.767 15.9669 219.571 15.9669C220.397 15.9669 221.07 15.6694 221.592 15.0744C222.114 14.4793 222.374 13.5482 222.374 12.281C222.374 11.0028 222.124 10.0496 221.625 9.42149C221.125 8.79339 220.408 8.47934 219.473 8.47934C218.702 8.47934 217.99 8.71901 217.338 9.19835C216.686 9.67769 216.162 10.4105 215.765 11.3967C215.699 11.5611 215.639 11.7327 215.583 11.9116L215.555 12.0069L215.431 9.43802C215.402 9.13437 215.35 8.91344 215.273 8.77523L215.244 8.72727C215.151 8.59504 215.013 8.52893 214.828 8.52893C214.698 8.52893 214.54 8.55096 214.355 8.59504C214.171 8.63912 213.942 8.71625 213.671 8.82645L209.042 10.1653C208.781 10.2645 208.596 10.3829 208.488 10.5207C208.379 10.6584 208.325 10.8154 208.325 10.9917C208.325 11.146 208.36 11.2727 208.431 11.3719C208.501 11.4711 208.613 11.5647 208.765 11.6529L209.189 11.7025C209.33 11.7686 209.43 11.8595 209.49 11.9752C209.55 12.0909 209.58 12.281 209.58 12.5455V20.9421C209.58 21.2727 209.553 21.5096 209.498 21.6529C209.444 21.7961 209.346 21.9008 209.205 21.9669L208.83 22.1157C208.689 22.2149 208.577 22.3223 208.496 22.438C208.414 22.5537 208.374 22.6997 208.374 22.876C208.374 23.1074 208.442 23.2893 208.577 23.4215C208.713 23.5537 208.901 23.6198 209.14 23.6198H217.289ZM234.452 22.6612C233.419 23.5537 231.936 24 230.002 24C229.35 24 228.81 23.9394 228.38 23.8182C227.951 23.697 227.603 23.5758 227.337 23.4545C227.071 23.3333 226.856 23.2727 226.693 23.2727C226.53 23.2727 226.316 23.3333 226.05 23.4545L225.251 23.8182C224.985 23.9394 224.759 24 224.575 24C224.412 24 224.26 23.9449 224.118 23.8347C223.977 23.7245 223.868 23.5041 223.792 23.1736L223.287 19.8843C223.189 19.4656 223.173 19.1129 223.238 18.8264C223.303 18.5399 223.45 18.3526 223.678 18.2645C223.917 18.1543 224.154 18.1488 224.387 18.2479C224.621 18.3471 224.83 18.5234 225.015 18.7769C225.634 19.7355 226.194 20.4904 226.693 21.0413C227.193 21.5923 227.68 21.9807 228.152 22.2066C228.625 22.4325 229.122 22.5455 229.644 22.5455C230.198 22.5455 230.611 22.4132 230.882 22.1488C231.154 21.8843 231.29 21.5482 231.29 21.1405C231.29 20.832 231.211 20.551 231.053 20.2975C230.896 20.0441 230.608 19.8099 230.19 19.595C229.771 19.3802 229.171 19.168 228.389 18.9587C227.182 18.6501 226.183 18.2479 225.39 17.7521C224.596 17.2562 224.007 16.6612 223.621 15.9669C223.235 15.2727 223.043 14.4628 223.043 13.5372C223.043 12.4904 223.301 11.5895 223.817 10.8347C224.333 10.0799 225.039 9.49862 225.936 9.09091C226.832 8.6832 227.84 8.47934 228.959 8.47934C229.633 8.47934 230.181 8.54545 230.605 8.67769C231.029 8.80992 231.358 8.94215 231.591 9.07438C231.825 9.20661 232.001 9.27273 232.121 9.27273C232.251 9.27273 232.444 9.20937 232.7 9.08264C232.955 8.95592 233.213 8.83196 233.474 8.71074C233.734 8.58953 233.952 8.52893 234.126 8.52893C234.321 8.52893 234.479 8.59504 234.598 8.72727C234.718 8.8595 234.799 9.0854 234.843 9.40496L235.267 12.4463C235.343 12.8871 235.353 13.2259 235.299 13.4628C235.245 13.6997 235.104 13.8512 234.875 13.9174C234.691 13.9614 234.495 13.9256 234.289 13.8099C234.082 13.6942 233.876 13.5096 233.669 13.2562C232.876 12.0551 232.151 11.2066 231.493 10.7107C230.836 10.2149 230.138 9.96694 229.399 9.96694C228.867 9.96694 228.465 10.0826 228.193 10.314C227.921 10.5455 227.785 10.8485 227.785 11.2231C227.785 11.4766 227.845 11.7135 227.965 11.9339C228.084 12.1543 228.304 12.3609 228.625 12.5537C228.945 12.7466 229.399 12.9366 229.986 13.124C231.561 13.6088 232.784 14.124 233.653 14.6694C234.522 15.2149 235.131 15.8402 235.478 16.5455C235.826 17.2507 236 18.0716 236 19.0083C236 20.551 235.484 21.7686 234.452 22.6612Z" fill="white"/>
<path fill-rule="evenodd" clip-rule="evenodd" d="M13.4893 7.00268C9.97493 3.49113 4.76554 2.98562 1.87661 5.87766C-1.01383 8.76821 -0.508337 13.9778 3.00008 17.4908C3.93606 18.4269 5.01454 19.1424 6.15301 19.6554C6.52651 17.4848 7.59748 15.3983 9.22344 13.6853C8.68496 13.4933 8.13297 13.3313 7.55698 13.1738C4.14606 12.2378 2.4511 9.39222 2.05511 6.05617C2.38262 6.45002 2.68082 6.86313 2.97814 7.27503C3.555 8.0742 4.12855 8.86879 4.90654 9.50922C6.11679 10.5058 7.44522 10.8904 8.89855 11.3113C8.95466 11.3275 9.01096 11.3439 9.06745 11.3602C9.75593 11.5597 10.3544 11.8553 10.9034 12.2003C12.3464 11.1457 13.9738 10.4437 15.6538 10.1542C15.1423 9.01571 14.4253 7.93869 13.4893 7.00268ZM7.54648 20.4894C7.76998 18.3159 8.82296 16.1903 10.5104 14.5028C14.0248 10.9912 19.2342 10.4842 22.1232 13.3778C25.0136 16.2683 24.5096 21.4779 20.9967 24.991C19.3092 26.6785 17.1838 27.7315 15.0103 27.9565C14.7208 27.985 14.4343 28 14.1538 28C12.2849 28 10.6154 27.3445 9.38544 26.1145C7.96947 24.7 7.31549 22.7019 7.54648 20.4894ZM12.6869 22.2729C13.8388 21.3939 15.0853 21.0459 16.4413 20.6754C19.8522 19.7394 21.5457 16.8938 21.9432 13.5578C21.6184 13.9494 21.3224 14.3598 21.0273 14.7688C20.4487 15.5709 19.8735 16.3681 19.0917 17.0108C17.8778 18.009 16.5463 18.3943 15.0864 18.8168L14.9308 18.8619C11.5934 19.8309 9.94343 22.6524 9.56244 25.936C9.89121 25.541 10.1924 25.1309 10.492 24.7229C11.1423 23.8374 11.7852 22.962 12.6869 22.2729Z" fill="#0E8784"/>
</svg>
